<svg xmlns="http://www.w3.org/2000/svg" xmlns:xlink="http://www.w3.org/1999/xlink" width="2500" height="1046" viewBox="394.273 328.54 479.861 200.737"><g fill="#0a3064"><path d="M741.377 463.836c.36-1.012.711-2.02 1.031-3.059l-.958 2.766c-.018.103-.051.203-.073.293M593.769 479.717a12.522 12.522 0 0 0-2.796-1.41c0 .045 1.118.548 2.796 1.41M742.466 460.004l.022-.125.036-.148c.199-.775.369-1.568.548-2.326-6.418 19.711-20.267 34.668-28.785 42.424a22.224 22.224 0 0 0 3.271-2.613c-1.817 1.873-2.356 2.49-2.795 3.26a53.42 53.42 0 0 1 3.221-2.723c-.328.73-.328.73-7.21 7.494 8.57-7.574 22.514-19.854 30.081-40.006l.589-1.703a59.354 59.354 0 0 0 1.022-3.545M741.066 464.74l-.141.379c.038-.129.107-.242.141-.379M598.463 481.951a122.906 122.906 0 0 0-4.688-2.244c1.54.871 2.967 1.813 4.688 2.244"/></g><path d="M740.854 465.25l-.046.162.107-.295.141-.379.213-.58c.04-.131.075-.207.1-.32.023-.094.055-.189.074-.293l-.589 1.705" fill="#e4e5e6"/><path d="M815.025 348.992h-75.856v13.789H770.197v85.103h18.428v-85.103H819.664v-13.787l-4.639-.002z" fill="#ccc"/><path d="M740.811 465.42l.461-1.256c.075-.205.123-.379.174-.611l-.635 1.867m-78.752-56.58c-.837.334-1.351.564-2.045 1.027.062.016.146.025.209.049 1.179.191 1.179.191 5.919-1.602.102-.047.248-.09.359-.156-2.099.143-3.154.283-4.442.682m-50.343 39l.122-.053a458.884 458.884 0 0 0-7.477 4.223c2.184-1.299 5.145-2.959 7.355-4.17m41.967-45.846a1.151 1.151 0 0 1-.571.148h-.021c.189-.052.407-.097.592-.148m21.509-4.756c-.146.029-.317.062-.462.125-.262.043-.546.096-.816.096.406-.082.86-.156 1.278-.221m2.527-.338c-.242 0-.492 0-.737-.014 3.612-.66 6.881-1.162 9.83-1.488-.845.248-1.688.549-2.5.828-.29.094-.999.115-1.325.291a.352.352 0 0 1-.32.254c.03-.018-.453.115-.453.115-.854.145-1.771.033-2.67.033-.457 0-.93-.021-1.414-.021-.122.002-.268.008-.405.002m-68.754-39.177c-12.517 4.576-28.097 12.605-41.265 24.564-3.75 3.426-7.308 6.635-13.42 9.402v-.031c-.648 1.498-1.468 3.574-2.104 5.057-1.177 3.178-1.772 4.85-2.375 6.965 0 .145.065.355.142.514.947.098 2.758-.93 9.471-5.008 12.15-7.416 17.798-10.727 28.867-15.979-.886 3.234-2.307 5.148-5.948 8.031-1.019.684-2.332 1.627-3.416 2.215-3.938 2.271-8.087 4.143-12.059 6.375-4.653 2.672-9.124 5.672-13.8 8.283-.42.232-1.005.535-1.428.775-1.846.855-2.916.395-2.828-1.314 0-.102.016-.205.041-.348-.236.928-.477 1.922-.79 3.098-1.759 7.834-2.096 14.541-2.372 19.885-.013 16.689 3.27 26.393 3.438 26.77.031.18.143.35.199.521.347.061.765.145 1.116.227.998 4.613 1.111 5.098 1.864 7.242 2.005 1.457 1.222 4.004 2.452 5.742.619-.234 1.491-.414 2.173-.414l-1.008.34c1.008.402 2.369.721 3.396.963-.116 3.715-.116 3.715.386 4.576.31-.205.717-.48 1.016-.688 5.734 1.24 5.734 1.24 8.654-1.182l2.371-2.047c-2.402 2.811-2.402 2.811-2.18 4.855 1.732.246 1.732.246 36.41-23.9l-.038-.029c15.45-8.734 30.132-18.844 45.45-27.803-11.501 3.414-21.463 10.127-32.37 14.768-3.521 2.055-6.71 3.924-9.66 5.635-.055-.068-.134-.145-.192-.207-.063-.131-.469-1.018-.736-1.127-.17-.012-.311-.012-.457-.012-.182 0-.359 0-.562-.068-.654-.227-1.746-.396-2.432-.227-.174.031-.438.205-.574.295-.332.145-.523.254-.854.42-.333.084-.568.332-.92.418-.35.121-.78.066-1.197 0h-.6c-.138 0-1.022.072-1.121 0-.236-.264.117-.838.213-1.031.104-.209.16-.471.201-.703.051-.16.13-.258.318-.268.12-.176.12-.248.211-.449.269-.621 1.022-1.176 1.577-1.57.705-.514 1.526-1.047 2.254-1.535.831-.521 1.714-1.287 2.677-1.555.328-.08.707-.08 1.033-.158.422-.146.409-.279.603-.658.091-.205.228-.236.173-.447 0-.111-1.18-.604-1.363-.646a.38.38 0 0 1 .142-.107c-.056.051-.125.061-.194.107-.381-.057-.246-.064-.564.043-.43.18-.789.314-1.157.57-.425.324-.903.506-1.345.773-.322.287-.502.545-.693.846-1.285.812-2.553 1.58-3.798 2.393-.069.031-.164.076-.269.076-.314.092-.57.051-.847.123-.835.178-1.707.531-2.522.768-.561.145-1.355.24-1.849.65-.216.17-.365.381-.562.596-.358.395-.957.818-1.404 1.068-.546.311-.873.24-1.477.24h-.356c-.249.025-.466.066-.659-.014-.062-.018-.096-.018-.157.014-.08-.014-.08-.014-.182-.168-.011-.088 0-.361.059-.455.186-.312.58-.447.69-.867-.293-.361-1.584-.145-2.029 0a13.97 13.97 0 0 0-2.75 1.012c-.742.357-1.518.48-2.253.84-.983.459-1.582.121-2.625-.074-.013-.352-.013-.525.147-.785.146-.227.436-.428.585-.648a.556.556 0 0 0 .122-.268c.356-.367.731-.812 1.095-1.18.746-.756 1.86-1.299 2.653-1.971a78.255 78.255 0 0 0 2.8-2.689c.157-.145.351-.26.509-.447.123.041.234 0 .329-.111.159-.152.132-.42.29-.604.097-.029.183-.125.247-.193.436-.416.862-.695 1.331-1.006.246-.1.396-.285.525-.445.066-.203.066-.629-.056-.812-.31 0-.472.467-.618.609-.384.396-.906.566-1.389.844-1.235.582-2.822 1.252-4.24 1.287a6.495 6.495 0 0 1-1.23-.012c-.225-.018-.49-.018-.717-.018-.031 0-1.047.08-1.15 0-.226-.312.479-1.26.619-1.414.275-.396.576-.787.88-1.146.155-.174.278-.396.37-.611.166-.158.03-.088.353-.256a53.81 53.81 0 0 0 2.765-1.711c.185-.146.397-.324.623-.342.213-.057.354 0 .545-.107.225-.145.465-.393.676-.535 1.058-.688 2.339-1.145 3.476-1.748 1.546-.84 2.828-2.018 4.431-2.768.48-.279.994-.525 1.52-.707.359-.117.681-.166 1.02-.373.704-.545 1.457-.938 2.285-1.332.809-.391 1.706-.668 2.506-1.1.235-.137.404-.344.618-.477.207-.084.431-.133.647-.16.369-.209.766-.391 1.133-.584.314-.176.89-.432 1.225-.537.457-.174.77-.311 1.153-.559.401-.17.554-.299.736-.725.071-.205.259-.631.071-.846-.662-.055-1.405.346-1.994.619-.62.26-1.254.424-1.847.693-.344.129-.622.336-.919.539-.185.078-.312.043-.449.027a.622.622 0 0 1-.258 0 1.79 1.79 0 0 0-.79.205c-.396.066-.802.215-1.187.328-.77.268-1.576.711-2.271 1.158-.896.492-1.735 1.08-2.698 1.49-1.121.555-2.297 1.186-3.504 1.514-.937.26-1.867.561-2.736.865-.574.195-1.168.367-1.699.582-.289.121-.322.229-.535.408-.312.268-.672.434-1.104.553-1.092.418-2.187.875-3.275 1.27-.366.064-.629.293-1.003.328-.449.066-.974.025-1.492 0-.271 0-.604-.023-.866 0-.666-.035-1.082-.105-1.72-.375-.045-.025-.239-.068-.447-.18a167.1 167.1 0 0 1 8.991-5.848 166.619 166.619 0 0 1 10.182-5.699c3.666-1.971 7.373-3.799 11.141-5.572 3.902-1.867 7.868-3.598 11.839-5.283 4.055-1.707 8.153-3.305 12.291-4.869a295.3 295.3 0 0 1 12.438-4.385c4.059-1.287 8.211-2.596 12.351-3.771a246.843 246.843 0 0 1 11.95-3.08 209.61 209.61 0 0 1 11.354-2.336c1.742-.299 3.479-.562 5.222-.807.463-.051.902-.084 1.345-.193.261-.041.55-.172.795-.268l-.31.227c.84-.104 1.655-.215 2.461-.312.759.021 1.52.021 2.262.086.32.012 2.04-.17 2.072.453.06.387-.438.342-.682.406-.339.145-.656.307-.964.441.896-.045 1.784-.033 2.676-.033.497.012.938.012 1.414.012.171 0 .834-.092.854.176-.021.158-.076.203-.277.203-.404.314-.844.604-1.264.869-.471.287-.819.406-1.396.551-.996.256-1.976.584-2.949.814-1.447.328-2.961.611-4.412.748-.359.041-.817-.066-.666.49.307.062.597.062.912.035 1.187 0 2.36.025 3.561.025.605 0 1.25.07 1.828-.061.436-.088.83-.139 1.273-.092.506.051 1.047.197 1.561.312-6.18.594-12.88 1.611-19.151 3.277-5.146 1.414-6.155 1.506-8.687 1.338.412-.561 1.001-1.289 1.481-1.781-3.141-.475-21.913 6.01-23.186 9.346.055 0 .104 0 .146-.033-.21.52.082.654.526.818 1.231.266 2.478.363 3.735.311 1.509.053 2.996.053 4.481.023 1.133.029 2.273.029 3.406.029 2.129 0 4.257.162 6.38-.309 1.722-.395 3.428-1.055 5.105-1.619 1.66-.502 3.314-1.139 4.986-1.576.379-.141.784-.223 1.166-.355.18-.037.617-.311.823-.311.396-.014.454.203.322.525-.364.625-2.267 1.016-2.769 1.178-.834.312-1.725.605-2.574.971.032.781 1.187.643 2.069.541.333-.061.65-.115.806-.145.084.027.18-.012.324-.012.178 0 .389-.037.514 0 .324.186.158.914.078 1.174-.142.365-.414.689-.613.965-.272.389-.506.582-.987.816-.087.688 4.336.293 4.748.225.755-.154 1.646-.725 2.431-.83.282-.045.51.023.848-.062a8.72 8.72 0 0 1 1.236-.227c.488-.084.92-.324 1.438-.373.349-.045.688 0 1.021.012.332-.012.707.045 1.092 0 .867-.059 1.721-.477 2.6-.588.221-.029.416-.029.634-.029.226 0 .438 0 .634-.018.754-.121 1.52-.24 2.223-.373.975-.244 1.936-.357 2.902-.506 1.338-.258 2.827-.055 4.183-.02 1.26.029 2.491.463 3.718.594 1.475.197-.266 1.164-.78 1.457a32.605 32.605 0 0 1-5.524 2.732c-1.272.545-2.316.906-3.717.85-.759-.021-1.326.047-2.062.301-.447.154-.859.303-1.329.371-.401.012-.817-.041-1.246-.041-.569 0-1.229-.107-1.819-.037-.272.078-.412.17-.733.23-.202-.012-.422-.012-.583-.029-.436-.029-.854-.029-1.256.133-.438.178-.446.311-.948.352h-.542c-.434-.041-.88-.041-1.309.127-1.043.467-2.14.475-3.248.502-.146-.01-.246-.029-.391-.01-.068.064-.16.109-.248.197-.683.295-1.401.527-2.111.742-1.524.598-2.936 1.457-4.57 1.922-.382.109-.598.068-.939.146-.972.232-2.024.58-2.976.82-.427.205-.94.311-1.383.443-.793.201-1.315.613-2.052.943-.362.195-.736.322-1.091.518a5.398 5.398 0 0 1-1.794.535c-.557.07-1.043.24-1.591.332-.56.086-.729.469-1.125.736-.365.236-.846.154-1.208.361-.757.4-1.486.838-2.254 1.248-.363.172-.682.305-1.006.453-.457.266-1.059.521-1.434.906-.31.354-.31 1.164-.209 1.674-.035 0-.056.029-.1.029.044 0 .064-.021.1-.021a.809.809 0 0 1 .029.209c.932.268 1.775.232 2.768.066a4.58 4.58 0 0 0 1.059-.193c.511-.115.917-.127 1.409-.199.92-.08 1.758-.578 2.618-.943.129-.041.248-.143.358-.209 11.256-2.512 21.878-7.754 33.608-8.568.205 0 19.604-.873 32.667 5.203 4.054 1.857 23.677 12.826 13.573 44.826l.959-2.766c2.291-7.674 2.948-11.701 3.602-16.205l.054-.42c.868-7.963.845-9.51.646-17.945-.903-11.922-1.906-15.912-4.583-25.014l-.351-.604c-.365-1.012 3.144-9.656-15.973-28.764-8.161-7.715-19.896-8.348-29.146-13.943 1.349-.471 1.349-.471 3.297-.076-7.752-4.883-17.231-3.775-25.454-6.924 1.024-.85 1.581-1.348 4.183-1.244a47.877 47.877 0 0 1-.2-1.109c12.353-1.467 21.125 1.139 27.32 4.48a49.549 49.549 0 0 1-2.315-1.801c1.819.828 2.719 1.258 5.553 3.307l.27.232-.732-.604c-12.549-9.566-30.568-21.744-86.039.65l-4.193-1.41c-.038-.084-4.688 2.584-4.734 2.523" fill="#fad50a"/><path d="M573.42 359.189l1.933-1.971c-.833.839-1.398 1.417-1.933 1.971m154.932 7.983a3.545 3.545 0 0 1-.257-.307c.042.068.074.104.123.168l.134.139zm-25.51-23.459c-.061-.041-.119-.055-.149-.09v.008l.149.082m-129.465 15.543v-.012a.094.094 0 0 0 .05-.055l-.05.067m122.069 9.668c-1.726-.82-2.716-1.262-3.954-1.561-.695-.191-1.25-.271-2.062-.33a.954.954 0 0 1 .144.094c.829.477.829.477 5.562 1.725a.96.96 0 0 0 .31.072m52.804 50.713c-1.263-11.449-1.974-13.898-4.5-23.049l-1.517-4.293c-3.694-9.727-7.742-15.965-11.655-22.023-1.253-1.791-1.315-1.879-2.843-3.854-.051-.053-.106-.135-.17-.182h.031c-5.918-7.379-8.499-9.539-14.97-15.047 1.164.75 1.164.75 2.818 2.049l-.734-.658c-16.657-14.438-33.228-18.932-52.989-21.211 2.116-.334 21.744.318 40.968 12.252-18.693-11.723-36.062-14.107-45.352-14.879-2.221-.09-4.787-.189-7.691-.201-8.417-.051-19.868 1.482-34.875 6.283l.062-.066s-9.574 2.895-18.469 7.154c-.224.125-.461.225-.673.326l-.364.18-1.821.926c-.112.068-.214.115-.339.182-.381.215-.771.418-1.148.645a51.636 51.636 0 0 0-2.586 1.52l.01.014c-.619.389-1.252.771-1.904 1.193l-1.397 1.002a279.55 279.55 0 0 0-3.707 2.914c-2.416 1.984-2.507 2.076-6.56 5.9 6.867-6.299 26.153-17.406 57.193-20.887-1.496 1.248-3.27 1.926-7.837 3.086-16.128 3.684-40.47 9.266-51.667 20.182a.826.826 0 0 1-.188.16c-1.165 1.209-2.15 2.391-5.141 5.93-2.803 3.453-2.959 3.711-7.057 9.912l-2.02 3.381c-.102.322-.184.812-.257 1.148.298.047.673.084.951.113-2.311 9.527-2.311 9.527-2.329 9.582 3.663-2.984 3.663-2.984 3.825-3.088-2.157 4.902-2.157 4.902-2.534 6.215.028 0 .039-.074.064-.074-.354.885-.773 2.09-1.034 2.988.239.283.529.693.731.967 1.758-1.127 3.207-2.641 5.105-3.594l-2.195 1.533c1.502-.645 3.543-1.438 5.064-2.031-1.521 1.977-3.096 3.781-4.585 5.744 1.55-.932 2.94-2.15 4.66-2.891l.674.664c2.315-.295 3.676-1.033 10.226-4.844l3.979-2.285c-4.097 2.604-4.662 2.938-5.775 4.816 1.466-.139 1.466-.139 9.712-4.059 10.83-5.025 17.836-7.789 39.071-12.797l-.062-.023c31.062-5.119 31.062-5.119 52.103-4.479-7.555-1.523-7.555-1.523-34.452-1.16-27.712 3.096-38.792 7.293-43.557 9.088-7.828 2.994-8.016 2.934-9.479 2.697 6.736-4.969 37.644-15.756 45.605-16.893-.212 0-24.716 3.508-38.492 10.633-7.836 3.996-17.126 6.729-17.154 6.736 3.548-3.311 7.608-6.088 10.812-9.734-3.143-.775-3.143-.775-8.62.477 21.367-27.15 138.798-34.555 159.189 19.883-1.268-1.84-12.799-18.064-33.037-26.611-5.013-2.117-5.172-2.291-6.18-3.281.268-.088.6-.273.902-.4-2.661-1.537-16.327-5.781-21.732-4.738 19.444 4.863 49.693 19.178 48.893 26.783-8.195-2.746-14.186-9.305-22.287-12.238 9.146 5.002 24.466 13.389 26.883 21.529-.266.158-.659.393-.916.572a27.016 27.016 0 0 1-2.9-2.15c-.016.066-.05.102-.05.143-1.836-1.984-12.59-10.373-19.68-13.408-10.023-4.271-20.994-5.18-31.365-8.33 11.269 4.35 23.556 5.846 34.181 11.887 12.684 7.127 22.14 19.84 22.258 19.953 16.859 22.781 10.194 46.043 7.711 54.754l-2.076 5.553 2.205-5.783c2.387-7.328 2.598-8.527 4.297-17.648 1.124-9.463 1.061-11.412.74-20.764m-116.054-45.485l.104.008c-2.585.32-6.038.898-8.601 1.281 2.531-.434 5.941-.938 8.5-1.289m36.168-40.671a130.378 130.378 0 0 0-13.849-.959c-.247 0-.619-.008-.867-.008 7.996-.219 13.743.264 19.841 1.604-1.913-.311-2.821-.406-5.131-.637m-92.483 23.218a2.891 2.891 0 0 1-.515.516l.134-.113c.112-.119.256-.25.381-.403m151.892 9.752c-.048-.064-.114-.139-.169-.217.055.08.087.113.138.18.012.022.019.037.031.037" fill="#f2940a"/><linearGradient id="a" gradientUnits="userSpaceOnUse" x1="-1999.4" y1="316.959" x2="-1902.77" y2="316.959" gradientTransform="translate(3425.296 21.655) scale(1.4141)"><stop offset="0" stop-color="#1985c3"/><stop offset=".436" stop-color="#1983c1"/><stop offset=".593" stop-color="#197eba"/><stop offset=".705" stop-color="#1a73af"/><stop offset=".795" stop-color="#1a659e"/><stop offset=".873" stop-color="#1b5288"/><stop offset=".94" stop-color="#1c3b6d"/><stop offset=".955" stop-color="#1c3566"/><stop offset="1" stop-color="#1c3566"/></linearGradient><path d="M672.381 515.791c-.014.01-.023.01-.039.004.009 0 .019 0 .039-.004m43.895-86.475c.216-.289.441-.688.622-1.008-.957 3.525-2.843 7.814-5.45 12.559-.618.953-1.256 1.932-1.901 2.941-3.129 4.727-9.275 5.752-12.705 10.127-.82-.461-1.047-.615-2.414.131-.342-2.113 3.078-5.016.333-6.32 2.764-6.01 7.646-10.686 11.782-15.84.246 1.084.947 1.486 1.858 1.486 2.825.003 7.685-3.837 7.875-4.076m-30.78 19.041c-15.998 13.072-2.144 9.258-1.973 9.178 1.543-.592 2.943-1.504 3.584-1.939-15.102 16.801-58.191 35.424-90.074 22.125-8.425-3.527-14.184-5.637 1.914 4.328-.182 0-.341-.049-.492-.102 6.851 3.436 15.344 8.072 11.049 8.223 0 .086 0 .23-.019.324l-.198-.068.215.105c.148.127.148.127 11.791 4.457-.729.273-1.33 2.812 8.42 3.797 11.369 1.107 21.578-.178 31.046-2.916-19.927 13.836-43.05 22.623-65.938 18.146.594.219 1.414.559 2.021.793 5.321 1.852 8.754 2.551 14.034 2.945-.027.258-.059.592-.069.936 3.721 1.945 8.653.713 9.466.273 2.133-1.098 2.94-1.311 16.656-2.312-3.042 2.494-7.328 1.316-10.491 3.49.094.412.465 1.012.841 1.279 17.333-2.367 35.206-4.809 79.519-40.852a8.88 8.88 0 0 1 1.944-1.104l-.106.102c-3.237 3.084-3.237 3.084-30.838 26.492-6.593 5.582-16.102 6.217-22.255 12.531.084.244.201.553.256.809l-.194.133.281-.092c1.497.344 2.916.346 4.284.146-2.713 1.105-6.026 2.52-10.09 4.336 0 .221-.213-.148-.067 1.434 7.806-1.797 23.304-3.797 33.528-9.914 15.209-8.359 43.896-33.617 57.223-61.246.31-.703.898-1.58 1.505-2.02l.039.732c.492.982.492.982-.907 5.98 1.086-2.332 1.896-4.705 2.594-7.141 2.525-22.973-12.623-31.438-16.115-33.043-1.807-.84-3.752-1.533-5.74-2.137 0 .016-.021.035-.021.064-.136-.086-.319-.137-.48-.215a73.562 73.562 0 0 0-9.876-2.041c-6.675 15.83-15.356 25.104-26.252 33.98" fill="url(#a)"/><defs><path id="b" d="M672.381 515.791c-.014.01-.023.01-.039.004.009 0 .019 0 .039-.004m43.895-86.475c.216-.289.441-.688.622-1.008-.957 3.525-2.843 7.814-5.45 12.559-.618.953-1.256 1.932-1.901 2.941-3.129 4.727-9.275 5.752-12.705 10.127-.82-.461-1.047-.615-2.414.131-.342-2.113 3.078-5.016.333-6.32 2.764-6.01 7.646-10.686 11.782-15.84.246 1.084.947 1.486 1.858 1.486 2.825.003 7.685-3.837 7.875-4.076m-30.78 19.041c-15.998 13.072-2.144 9.258-1.973 9.178 1.543-.592 2.943-1.504 3.584-1.939-15.102 16.801-58.191 35.424-90.074 22.125-8.425-3.527-14.184-5.637 1.914 4.328-.182 0-.341-.049-.492-.102 6.851 3.436 15.344 8.072 11.049 8.223 0 .086 0 .23-.019.324l-.198-.068.215.105c.148.127.148.127 11.791 4.457-.729.273-1.33 2.812 8.42 3.797 11.369 1.107 21.578-.178 31.046-2.916-19.927 13.836-43.05 22.623-65.938 18.146.594.219 1.414.559 2.021.793 5.321 1.852 8.754 2.551 14.034 2.945-.027.258-.059.592-.069.936 3.721 1.945 8.653.713 9.466.273 2.133-1.098 2.94-1.311 16.656-2.312-3.042 2.494-7.328 1.316-10.491 3.49.094.412.465 1.012.841 1.279 17.333-2.367 35.206-4.809 79.519-40.852a8.88 8.88 0 0 1 1.944-1.104l-.106.102c-3.237 3.084-3.237 3.084-30.838 26.492-6.593 5.582-16.102 6.217-22.255 12.531.084.244.201.553.256.809l-.194.133.281-.092c1.497.344 2.916.346 4.284.146-2.713 1.105-6.026 2.52-10.09 4.336 0 .221-.213-.148-.067 1.434 7.806-1.797 23.304-3.797 33.528-9.914 15.209-8.359 43.896-33.617 57.223-61.246.31-.703.898-1.58 1.505-2.02l.039.732c.492.982.492.982-.907 5.98 1.086-2.332 1.896-4.705 2.594-7.141 2.525-22.973-12.623-31.438-16.115-33.043-1.807-.84-3.752-1.533-5.74-2.137 0 .016-.021.035-.021.064-.136-.086-.319-.137-.48-.215a73.562 73.562 0 0 0-9.876-2.041c-6.675 15.83-15.356 25.104-26.252 33.98"/></defs><clipPath id="c"><use xlink:href="#b" overflow="visible"/></clipPath><linearGradient id="d" gradientUnits="userSpaceOnUse" x1="-2005.828" y1="321.661" x2="-1898.938" y2="312.311" gradientTransform="translate(3425.296 21.655) scale(1.4141)"><stop offset="0" stop-color="#1985c3"/><stop offset=".436" stop-color="#1983c1"/><stop offset=".593" stop-color="#197eba"/><stop offset=".705" stop-color="#1a73af"/><stop offset=".795" stop-color="#1a659e"/><stop offset=".873" stop-color="#1b5288"/><stop offset=".94" stop-color="#1c3b6d"/><stop offset=".955" stop-color="#1c3566"/><stop offset="1" stop-color="#1c3566"/></linearGradient><path d="M573.207 415.246l172.06-15.061 10.874 124.344-172.044 15.047-10.89-124.33z" clip-path="url(#c)" fill="url(#d)"/><path d="M736.371 425.031c-3.886 15.42-8.527 22.535-15.373 32.963-3.818 5.805-11.369 7.113-15.568 12.436-.991-.545-1.303-.719-2.954.186-.437-2.613 3.758-6.152.438-7.762 5.596-12.24 18.314-19.883 22.236-33.23-1.505 1.891-2.604 4.111-4.131 6.033 1.727-5.877 4.377-11.445 5.656-17.443-.292-.135-.601-.252-.896-.367-.341.59-.773 1.381-1.371 2.461-8.276 20.41-19.145 32.1-32.886 43.332-19.62 16.057-2.646 11.342-2.438 11.275 1.923-.781 3.571-1.893 4.414-2.389-23.397 26.018-101.666 55.617-137.666 5.146.343.498.748 1.238 1.091 1.76 8.739 13.283 8.739 13.283 28.493 25.496-3.695-.633-6.34-3.502-9.811-4.588.061.107 8.479 11.078 33.645 13.957 26.842 3.086 34.467 1.021 42.523-1.186 6.893-1.865 13.09-2.508 13.11-2.508l-.123.066c-19.826 6.055-19.826 6.055-41.956 7.457-4.305.266-8.434-.639-12.553-1.574-3.932-.885-7.864-1.779-11.909-1.654 0 .09 0 .26-.026.354l-.246-.027.271.088c.201.193.201.193 14.462 5.494-.888.33-5.106.918-22.654-6.613.15.107 21.028 10.064 32.962 11.246 39.12 3.828 67.241-15.1 94.452-33.426 0 .125-.05.311-.058.461.332.051.756.104 1.107.145-.214.604-.214.604-3.156 4.113 6.416-5.18 9.707-13.217 16.511-18.105-.595 2.855-21.815 36.979-69.093 47.941 2.293-.309 2.998-.428 5.49-1.08-3.248.928-3.337 1.008-4.716 1.461.856-.113.856-.113 5.279-1.006-2.575 1.271-5.556 1.869-12.741 3.334 40.924-7.086 70.947-30.35 84.499-65.604 1.854-6.111 2.619-8.602 3.363-12.473 1.28-12.914-3.054-21.172-7.673-26.174" fill="#0a3064"/><path d="M637.155 478.02c-2.708-1.527-4.334-3.896-5.45-5.801-.474-.816-.918-1.666-1.356-2.48l-.511-.949c-.534-1.018-1.205-2.168-1.978-3.193a12.955 12.955 0 0 0-1.03-1.152l-1.096-1.154c-.341-.377-.661-.717-.929-1.059-.273-.336-.46-.641-.546-.863-4.81-12.266-5.94-19.225-7.686-31.438-.896-6.281-4.744-11.383-10.992-19.021-.784-.939-1.641-2.053-2.569-3.236-.634-.838-1.31-1.684-1.972-2.545-2.053-2.57-3.729-4.484-5.043-5.764-2.237-1.898-4.209-3.562-6.01-5.086-2.544-2.141-4.695-3.959-6.668-5.609-3.756-3.07-6.636-5.23-9.955-7.479-4.637-3.139-9.608-4.707-14.738-4.707-5.244.008-9.113 1.695-10.418 2.602-4.424 3.025-7.758 4.885-11.51 6.439-2.705 1.133-5.535 2.061-9.106 3.229-1.14.377-2.365.781-3.69 1.215-4.06 1.371-6.945 3.719-8.986 5.643-.491.459-.959.914-1.408 1.346-.502.502-.967.949-1.428 1.355-.928.852-1.571 1.301-2.146 1.52-.62.225-1.614.371-3.048.471-.748.047-1.515.074-2.27.111-.549.033-1.093.066-1.606.088-4.66.268-8.398 2.885-10.81 4.861-1.257 1.021-2.417 2.078-3.544 3.109l-.533.502c-1.428 1.271-2.425 2.143-3.396 2.77-3.304 2.143-6.428 2.453-9.868 2.805-1.758.156-3.586.342-5.529.758-2.33.48-4.53 1.219-6.723 2.25-2.474 1.164-4.968 2.656-8.089 4.83a211.88 211.88 0 0 0-3.983 2.855c-1.143.832-2.291 1.686-3.442 2.492-5.149 3.619-9.568 6.008-14.358 6.01-4.738.018-8.095-2.744-8.556-7.039-.408-3.773 1.524-7.596 5.431-10.773l2.143-1.725c1.609-1.291 3.119-2.48 4.464-3.66 2.278-1.961 3.821-3.529 5.015-5.074 2.936-3.873 3.695-7.865 2.414-12.908-1.133-4.559-4.637-7.656-10.693-9.463-2.164-.654-4.36-1.025-6.425-1.367l-.714-.127c-.631-.092-1.205-.172-1.701-.268-.658-.131-1.132-.252-1.394-.361-3.283-1.451-10.424-6.23-11.854-7.189l-.588-.385-.395.572c-1.31 1.881-2.328 3.367-3.104 9.869-.846 7.176 5.065 15.953 15.257 17.543a1.471 1.471 0 0 1 1.189 1.076 1.436 1.436 0 0 1-.506 1.496c-10.783 8.484-13.06 12.121-13.625 21.654-.354 5.896 1.724 11.693 5.685 15.898 4.33 4.584 10.593 6.992 18.136 6.992 2.002 0 4.125-.186 6.293-.514.075-.025.147-.025.235-.025.32 0 .642.107.892.318.315.236.521.615.543 1.008.511 6.635 1.716 12.004 3.212 14.402.372.6.277 1.373-.232 1.854-.458.424-1.196.84-2.121 1.213-2.304.889-5.789 1.451-9.266 1.451-2.166.012-3.788 1.502-5.084 4.713-.427 1.037-.767 2.152-1.099 3.217l-.09.305c-.187.539-.334 1.037-.498 1.508a8.987 8.987 0 0 1-.475 1.088c-.434.764-1.079 1.533-1.973 2.33-.268.232-.6.352-.951.352-.073 0-.172-.01-.25-.01a1.504 1.504 0 0 1-1.022-.732c-1.066-1.904-2.745-3.125-4.972-3.613l-.062-.018h-.229c-3.296 0-9.023 2.811-11.116 8.066-.21.48-.65.838-1.191.889l-.266.049c-2.626.275-4.293 1.492-5.223 3.83-.39 1.012-.642 2.127-.817 3.09l-.142.723c-.151.801-.308 1.641-.511 2.432a7.703 7.703 0 0 1-.734 1.818c-.168.324-.341.598-.493.873-.124.193-.243.377-.362.566-.574 1.092-.875 2.207-.404 4.076.208.854.899 1.617 2.021 2.215.845.457 1.908.842 3.204 1.16 2.312.578 4.565.73 5.01.73.322 0 .639-.102.939-.254.23-.125.427-.301.677-.479.258-.217.62-.324.95-.324.077 0 .163 0 .221.018l1.081.201c.878.16 1.968.375 3.068.604l.168.041c1.061.199 2.092.4 2.928.562.441.084.849.146 1.148.215.335.035.594.057.756.047l.006.01c4.557-.23 6.479-1.996 7.74-3.689.377-.5.689-.994 1.005-1.527l.524-.881.375-.664c.375-.623.746-1.205 1.151-1.77a1.427 1.427 0 0 1 1.171-.592c.122 0 .243 0 .368.035.523.143 1.052.24 1.497.328 1.047.162 2.025.254 2.438.287.299.006.58.035.869.035 4.32 0 7.526-2.408 10.182-4.684l.872-.73c.429-.365.812-.691 1.208-1.023.533-.461 1.228-1.025 1.964-1.496 1.294-.865 2.376-1.275 3.452-1.266l.26.01c1.044.047 4.93.336 11.537 1.355.29.066.57.086.855.086 1.496 0 3.391-.531 5.649-1.521 1.624-.74 3.479-1.744 5.358-2.918.412-.273.893-.49 1.485-.764l.151-.066a49.275 49.275 0 0 0 1.719-.807c1.074-.543 2.665-1.479 3.949-3.102.755-.947 1.759-2.924 2.753-4.93l1.071-2.207a2084.14 2084.14 0 0 0 1.856-3.803 1.49 1.49 0 0 1 1.306-.807l.021.012h.389c2.048 0 4.494-.328 6.636-.629.93-.146 1.855-.277 2.74-.43 1.969-.311 3.657-.576 4.918-.645.312 0 1.145.066 2.299.152l2.621.176c3.285.184 5.989.281 8.224.26a47.596 47.596 0 0 0 3.47-.09c1.755-.133 3.379-.391 4.684-.801.362-.104.764-.232 1.151-.396.188-.086.386-.117.59-.141.357 0 .729.152 1.009.422a79.107 79.107 0 0 0 2.25 2.1c.461.371.627.988.429 1.525a1.444 1.444 0 0 1-1.263 1c-.287.02-.578.055-.844.088-.919.127-2.607.5-3.439 1.582a1.403 1.403 0 0 1-1.146.562c-.19 0-.396-.035-.583-.111a3.95 3.95 0 0 0-.613-.223 4.72 4.72 0 0 0-1.229-.148l-.187.004-.492-.004-.744.021h-.398c-1.31 0-4.386-.018-7.033.428-1.638.279-2.936.674-3.854 1.199-.87.475-1.871 1.375-1.789 2.842.147 2.736 3.993 10.1 6.606 12.695.502.52 2.229 1.049 4.129 1.049.193 0 .406-.014.61-.023.03 0 .075-.004.105-.004.541 0 1.028.305 1.28.787 2.681 5.281 7.312 8.816 11.529 8.816l.28-.018c4.022-.148 14.886-4.074 22.501-7.691.1-.029.202-.059.311-.084.238-.066.525-.102.822-.146.447-.068.959-.131 1.501-.186l.765-.084c1.68-.211 3.586-.492 4.983-1.15 1.288-.627 3.158-3.035 4.749-6.137a1.479 1.479 0 0 1 1.286-.783h.134a1.467 1.467 0 0 1 1.25 1.039c.194.613.418 1.174.688 1.668 1.303 2.438 3.623 3.688 6.895 3.666.178 0 .357 0 .543-.01 2.253-.082 4.721-.834 6.868-1.531l1.224-.404c1.854-.635 3.584-1.215 5.209-1.494.582-.102 1.242-.152 2.004-.168.348 0 .722.016 1.095.027.683.039 1.373.098 2.071.148.465.025.935.084 1.407.092a22.27 22.27 0 0 0 2.089.082c2.01.016 3.558-.283 4.942-.953 2.028-.834 3.612-1.967 4.651-2.727l.385-.277c.256-.199.557-.264.844-.291.35.029.684.139.963.369a27 27 0 0 0 18.035 6.77h.919c2.148-.074 3.835-.789 4.744-2.031.608-.795.8-1.783.545-2.75a1.493 1.493 0 0 1 .173-1.156c.223-.334.569-.574.979-.643 1.464-.268 2.677-.799 3.554-1.566.795-.723 1.321-1.74 1.329-2.635 0-.602-.213-1.098-.671-1.539-.993-.921-1.56-1.257-4.436-2.862m-64.202-11.161c-.981 1.219-2.463 1.588-3.805 3.977-2.701-1.059-3.172-4.615-3.676-6.158 2.164-.406 7.261-1.373 9.928-1.787-1.1 1.396-1.883 2.332-2.449 3.971" fill="#fff"/><g fill="#db0a40"><path d="M635.047 480.451c-5.023-2.922-7.043-8.459-10.162-12.824-1.088-1.617-3.016-2.637-4.019-4.215-3.623-9.805-6.722-19.592-7.661-30.834-.76-2.785-1.334-5.615-2.856-8.229-4.535-7.361-10.412-14.078-16.105-20.852-.514-.512-.52-.568-1.604-1.604l-19.883-16.482c-2.439-1.852-5.202-3.023-7.967-4.271-4.201-1.594-9.899-1.24-13.994.518-4.285 2.266-8.142 5.545-12.658 7.062-6.529 2.943-13.912 3.535-19.532 8.555-3.267 2.857-6.038 7.295-10.897 6.553-5.444-.252-10.313 1.76-14.401 5.145-3.701 3.328-7.222 7.293-12.001 8.215-4.19 1.771-9.297.928-13.57 2.531-6.792 1.666-12.161 7.053-17.931 11.174-5.784 3.348-11.313 6.955-18.525 6.789-4.706-.324-9.229-3.588-10.739-8.109-1.433-5.203.148-10.561 4.271-14.088 4.257-5.123 11.058-8.152 14.402-14.025 1.752-3.094 1.507-8.127-.834-11.074-4.455-4.594-10.834-4.754-16.615-6.174-3.692-1.012-6.545-3.852-9.818-5.602-1.255 1.906-1.665 4.018-1.505 6.355.678 5.273 4.7 10.062 9.739 11.9 2.927 1.258 6.294.336 9.312 1 .845.342 1.67 1.18 1.759 2.102-.16.832-.246 1.672-1.002 2.262-4.69 3.941-9.636 7.713-13.575 12.576-4.193 4.541-4.677 12.492-2.496 18.207 2.428 6.52 9.23 10.816 15.772 11.645 4.768.748 9.061-.516 13.408-1.447.586 0 .845.609 1.095.924.423 3.859-.167 7.291.682 10.824.749 3.262 1.843 5.52 3.032 8.705.159 1.09 0 2.266-.76 3.121-2.437 1.836-4.958 3.096-7.639 4.271l-6.529.414-1.256.607c-2.431 2.842-2.505 5.777-4.014 8.984-2.008 3.34-5.698 4.949-8.797 6.877-1.001 1.586-2.1 3.27-3.521 4.527-1.088.979-2.428 1.27-3.854 1.41-2.257 2.615-2.759 6.229-3.349 9.752 3.688.336 7.549 2.35 11.154.336 3.1-1.438 3.771-5.213 6.112-7.482 1.839-2.01 4.617-.504 6.796-.078 3.27.148 5.62-2.189 8.378-3.301 1.925-1.242 3.503-3.441 5.522-4.684 3.863-1.855 9.222-.869 13.261-.096 3.174.822 6.527.312 9.302-.926 2.592-1.613 5.028-3.625 7.953-4.297 2.599-1.336 3.866-4.271 4.938-6.713.844-2.256 3.034-4.023 2.862-6.633-.683-.582-1.433-1.852-2.444-1.75-1.264 1.75-2.188 3.598-3.604 5.293-6.058 8.273-10.818 9.061-23.134 9.072-9.146-.336-17.352 2.453-23.635 9.578-.421.264-1.011.084-1.345-.252-.235-1.002.59-2.68 1.005-3.436 5.609-7.967 14.339-9.807 23.559-9.998 5.025-.336 9.812-1.174 14.078-3.367 4.775-2.432 8.039-6.236 10.06-10.93 1.078-5.277 1.485-10.98 2.828-16.006.172-.518 1.413-.885 1.825-.719.517.104 1.521.545 1.527 1.127-.928 5.199-2.588 11.312-.574 16.338 4.027 5.295 11.495 2.424 16.939 2.164 5.699-.502 10.293-.064 15.736.27 2.681-.072 4.666.584 6.762-1.104.587-.93.822-2.184.65-3.189-.175-1.5-1.441-2.414-.014-3.67.432-.346 1.68-.129 2.012.303.76 2.086 1.099 4.355 2.442 6.211 2.687 3.438 6.63 6.119 10.315 8.062 3.51 2.424 6.453 5.844 6.709 10.131.022 2.18-2.01 3.666-3.686 4.686-2.842 1.43-5.939 2.605-9.305 2.27-4.446-2.162-5.617-6.852-8.557-10.287-1.521-1.684-3.78-2-6.035-1.855-2.446.258-4.871.352-7.047 1.104-.58.498-.752 1.271-.679 2.025 1.521 2.76 3.195 5.434 4.873 8.191 1.942 1.191 4.621-.66 6.287 1.414 1.437 2.201 2.367 4.781 4.533 6.475 2.104 1.818 5.295 2.668 8.057 1.51 6.2-1.943 12.418-3.975 18.193-7.084h1.927c2.339-.23 4.944-.092 6.616-1.855 1.84-2.668 3.354-5.184 4.771-8.037 1.428-1.928.765-4.867.164-6.949-2.855-3.545-4.453-7.488-5.96-11.52-1.435-.42-2.678-1.244-4.284-1.162-.752.326-1.845.17-2.265.99l6.631 13.105c.425 1.012.931 2.451.685 3.779-.934 2.768-2.35 5.453-4.609 7.467-.417.246-.919.484-1.25-.086.746-2.842 2.081-5.957 1.914-9.227l-6.468-11.668c-.751-1.578-2.095-3.02-2.019-4.861-.011-.846.758-1.432 1.429-1.762 2.843-.92 6.272-.771 8.454-3.035 2.856-4.434 3.443-8.801 4.196-14.066.166-.344.839-.986 1.347-.986.498-.184 1.068.553 1.326.818.846 5.773-.32 11.623-3.683 16.17-.153.584-.412 1.34.257 1.752 3.19 1.021 6.543 0 9.221-1.428 3.447.08 6.621-.76 9.726-1.262.337.164.683.502.683.846-2.1 2.342-3.275 4.938-3.857 7.971-2.514 2.604-6.115 4.885-6.362 8.643.418 1.852 2.021.084 3.104.27.5.064.839.492.839.986l-2.513 3.693c-1.344 2.182.252 4.699.252 6.785.596 1.688 2.611 2.521 4.364 2.521 3.784-.16 7.128-1.6 10.484-2.779 3.685-1.6 8.286-1.502 12.319-.852 3.939-.246 6.877-2.863 9.8-5.465 1.602.016 3.034 1.105 4.112 2.266 4.529 4.865 10.406 6.947 17.039 6.771l.574-.328c.43-.426.257-1.178-.256-1.5l-3.93-2.012c-2.769-1.771-6.2-4.104-7.129-7.207-.854-2.775-2.36-5.785-4.032-8.473-.595-1.355-1.927-2.432-2.517-3.787.15-.172.33-.418.59-.344 4.357 1.506 6.947 5.801 8.961 9.67 3.209 4.432 7.812 8.207 13.849 7.207l.502-.438c.258-.328.179-.758 0-1l-3.015-1.516m-65.858-59.002a22 22 0 0 1-.205-.059s-.022.059-.031.094a.212.212 0 0 0-.051.049c-.24.238-.663.404-1.093.119 0 0-.051-.035-.104-.068-.012-.061-.03-.137-.03-.137-.644-3.338-1.4-6.877-2.756-10.164.01 0-.772-1.34-.772-1.34l-.306-.42-.659-.961c-.541-.842-1.05-1.992-.349-3.334l.075-.119c.607-.598 1.688-.66 2.425-.379l.098.051c1.432.973 2.35 2.623 3.033 3.809.836 1.971 1.281 4.432 1.281 6.998 0 1.943-.252 3.932-.759 5.801 0 .001.108.03.203.06m32.008 55.279s-.028.033-.021.043c-.028-.01-.078 0-.078 0-1.547.492-3.326.701-5.229.604l-.104-.018c.01 0-.354-.152-.354-.152l-.363-.225c-.188-.166-.471-.465-.311-.951.729-2.174 2.872-4.703 5.6-5.264.068 0 .232-.016.232-.016l.383.016.612.082c.3.086.796.324.928 1.053.05.383.07.84.07 1.303-.001 1.281-.26 2.681-1.365 3.525m10.241-22.867c-.012.055-.247.695-.247.695-.011.055-.224.736-.224.736-.236.666-.611 1.025-1.193 1.166-.347.102-.668.051-.914-.143-.262-.191-.404-.504-.404-.863l-.056-.736-.261-2.58c-.208-1.193-.57-2.117-1.116-2.906a113.358 113.358 0 0 1-1.131-1.307c-.043-.041-1.29-1.443-1.29-1.443-.979-.988-1.869-1.443-2.783-1.488-.724.229-1.367.695-2.08 1.461l-.884 1.107-.788 1.061c-.288.473-.917.195-.939.195 0 0-.043-.029-.101-.047-.028-.059-.049-.139-.049-.139a3.835 3.835 0 0 1-.271-1.432c0-.795.231-1.529.479-2.109l.683-1.404.772-1.637.118-.158c.226-.225.449-.625.695-1.311l.226-.576.443-1.162c.707-1.496 1.725-1.898 3.241-1.258 1.184.623 1.901 1.623 2.45 2.516l.376.627.479.779.989 1.248c2.716 3.031 4.028 5.904 4.028 8.863a9.822 9.822 0 0 1-.248 2.245"/><path d="M412.448 489.955c2.607-1.516 4.271-4.369 5.626-6.811-.258-.912-1.176-1.58-1.938-2.266-.5-.412-1.25-.07-1.848.09-1.849 1.604-3.756 2.844-5.77 4.121-.854.572-.505 1.838-.682 2.754 0 .842 1.011 1.436 1.513 1.93a4.398 4.398 0 0 0 3.099.182M403.652 490.211c-1.345.678-2.771 1.936-3.099 3.443-.427 2.686.173 5.191-1.911 7.143-.087.508-.615 1.09-.087 1.604 1.832.562 3.594 1.324 5.854 1.568 1.01-3.277 1.753-6.893 2.938-9.727v-.84c-1.003-1.256-2.021-2.853-3.695-3.191M530.825 481.201c1.683 1.854 1.595 4.684 3.528 6.115 2.514.426 4.766-.584 6.711-2.092 1.086-.936-.512-2.105-.673-3.201-1.101-1.572-.351-4.779-3.024-4.852-2.699.408-5.375.498-8.057.514l-.76.51c-.494 1.58 1.853 1.58 2.275 3.006"/></g><g fill="#ccc"><path d="M804.674 447.842c.003 0 .006-.008.009-.008-.017.002-.026.006-.009.008M873.641 363.121v-.004c-2.581-12.23-13.181-13.373-17.083-13.457-1.975-.041-2.719.715-2.719.715-.467.77 1.031 1.77 1.753 2.197 10.497 6.266 2.293 24.498-7.97 40.529-15.096 20.775-22.604 30.154-22.604 30.154-1.823 2.525-3.308 1.605-3.308-2.045v-50.23.428h-17.039v-.428 70.217c0 3.631 4.139 6.639 7.158 6.643l5.802.002c5.21 0 8.329-2.688 9.913-5.07l40.572-60.404c1.532-2.219 7.806-11.023 5.522-19.248"/></g></svg>